# xmcd
#
# Track frame offsets: 
#        150
#        28241
#        49857
#        86183
#        110134
#        138441
#        157714
#        181948
#        201897
#
# Disc length: 3275 seconds
#
# Revision: 0
# Processed by: cddbd v1.5.2PL0 Copyright (c) Steve Scherf et al.
# Submitted via: ExactAudioCopy v1.0b3
#
DISCID=7a0cc909
DTITLE=Various Artist - Hai Dua Gian Nhau
DYEAR=2013
DGENRE=
TTITLE0=Mai Thien Van, Ha Vy, Duy Truong - LK Ha buon
TTITLE1=Truong Vu, Mai Thien Van - Hai dua gian nhau
TTITLE2=Quang Le, Nhu Quynh - LK Troi Hue vao thu chua em, Hue va em
TTITLE3=Ha Vy, Duy Truong - Phien cho song
TTITLE4=Mai Thien Van, Manh Quynh - Thoang giac mo qua
TTITLE5=Huong Lan - Phan to tam
TTITLE6=Duy Truong - Ngay buon
TTITLE7=Ha Vy - Khuya nay anh di roi
TTITLE8=Huong Thuy, The Son, Calvin Hiep - Quan gam dau lang [tan co]
EXTD=
EXTT0=
EXTT1=
EXTT2=
EXTT3=
EXTT4=
EXTT5=
EXTT6=
EXTT7=
EXTT8=
PLAYORDER=
